<svg xmlns="http://www.w3.org/2000/svg" viewBox="0 0 278.66 35.07"><defs><style>.cls-1{fill:#fff;}</style></defs><g id="Layer_2" data-name="Layer 2"><g id="Nav_Layout" data-name="Nav Layout"><polygon class="cls-1" points="10.02 30.06 0 30.06 0 35.07 10.02 35.07 15.03 35.07 15.03 30.06 15.03 5.01 15.03 0 10.02 0 0 0 0 5.01 10.02 5.01 10.02 30.06"/><polygon class="cls-1" points="30.68 30 25.67 30 25.67 24.99 30.68 24.99 30.68 30 35.69 30 35.69 24.99 35.69 19.98 30.68 19.98 25.67 19.98 20.66 19.98 20.66 24.99 20.66 30 20.66 35.01 25.67 35.01 30.68 35.01 30.68 30"/><polygon class="cls-1" points="30.68 5.01 30.68 10.02 25.67 10.02 25.67 5.01 30.68 5.01 30.68 0 25.67 0 20.66 0 20.66 5.01 20.66 10.02 20.66 15.03 25.67 15.03 30.68 15.03 35.69 15.03 35.69 10.02 35.69 5.01 30.68 5.01"/><rect class="cls-1" x="0.03" y="20.04" width="5.01" height="5.01"/><rect class="cls-1" x="0.03" y="10.02" width="5.01" height="5.01"/><path class="cls-1" d="M63.87,29.88V5.27h8.38a14.9,14.9,0,0,1,7.22,1.5c3.49,2,5.69,5.78,5.69,10.81,0,8.11-4.79,12.3-12.47,12.3ZM73,24.36c3.63,0,5.89-2.26,5.89-6.75S76.64,10.79,73,10.79H70.16V24.36Z"/><path class="cls-1" d="M102.52,29.88v-2h-.07c-.8,1.63-3,2.63-5.42,2.63-5.45,0-9.25-4.29-9.25-9.88s4-9.85,9.25-9.85a6.25,6.25,0,0,1,5.42,2.6h.07v-2H108V29.88Zm0-9.24A4.68,4.68,0,0,0,97.83,16a4.71,4.71,0,1,0,4.69,4.69Z"/><path class="cls-1" d="M112,29.88V11.42h5.19v2h.07c1-2,2.49-2.6,4.62-2.6v5.56c-3.29,0-4.36,1.26-4.36,3.36V29.88Z"/><path class="cls-1" d="M135.81,29.88,130.59,21h-.07v8.88H125V5.27h5.52V18.11h.07l5.12-6.69h6.55l-6.95,8.12,6.75,10.34Z"/><path class="cls-1" d="M144.46,29.88V5.27H150v7.62a6.83,6.83,0,0,1,5.25-2.1c4.79,0,9.18,3.59,9.18,9.75,0,5.69-3.62,10-9.31,10-2.23,0-4.46-1-5.29-2.6h-.07v2Zm14.43-9.24a4.56,4.56,0,1,0-9.11,0,4.52,4.52,0,0,0,4.49,4.76A4.61,4.61,0,0,0,158.89,20.64Z"/><path class="cls-1" d="M167.17,29.88V5.27h5.52V29.88Z"/><path class="cls-1" d="M185.77,30.45a9.65,9.65,0,0,1-10-9.81,9.95,9.95,0,0,1,19.89-.07A9.67,9.67,0,0,1,185.77,30.45Zm4.42-9.81a4.43,4.43,0,1,0-8.85,0,4.43,4.43,0,1,0,8.85,0Z"/><path class="cls-1" d="M211.87,18.54A4.24,4.24,0,0,0,207.75,16c-2.53,0-4.26,2.09-4.26,4.69a4.4,4.4,0,0,0,4.39,4.69,4.22,4.22,0,0,0,4-2.46h5.62a9.91,9.91,0,0,1-19.55-2.27,9.88,9.88,0,0,1,19.52-2.06Z"/><path class="cls-1" d="M231,29.88,225.81,21h-.07v8.88h-5.52V5.27h5.52V18.11h.07l5.12-6.69h6.55l-6.95,8.12,6.75,10.34Z"/><path class="cls-1" d="M240,29.88V24.23h5.76v5.65Z"/><path class="cls-1" d="M250.12,9.46V5.27h5.52V9.46Zm0,20.42V11.42h5.52V29.88Z"/><path class="cls-1" d="M268.71,30.45a9.65,9.65,0,0,1-9.94-9.81,9.95,9.95,0,0,1,19.89-.07A9.67,9.67,0,0,1,268.71,30.45Zm4.43-9.81a4.43,4.43,0,1,0-8.85,0,4.43,4.43,0,1,0,8.85,0Z"/></g></g></svg>