<svg width="314" height="41" viewBox="0 0 314 41" fill="none" xmlns="http://www.w3.org/2000/svg">
<g clip-path="url(#clip0)">
<path d="M10.02 35.06H0V40.07H10.02H15.03V35.06V10.01V5H10.02H0V10.01H10.02V35.06Z" fill="white"/>
<path d="M30.68 35H25.67V29.99H30.68V35H35.69V29.99V24.98H30.68H25.67H20.66V29.99V35V40.01H25.67H30.68V35Z" fill="white"/>
<path d="M30.68 10.01V15.02H25.67V10.01H30.68V5H25.67H20.66V10.01V15.02V20.03H25.67H30.68H35.69V15.02V10.01H30.68Z" fill="white"/>
<path d="M5.04003 25.04H0.0300293V30.05H5.04003V25.04Z" fill="white"/>
<path d="M5.04003 15.02H0.0300293V20.03H5.04003V15.02Z" fill="white"/>
<path d="M63.87 34.88V10.27H72.25C74.7443 10.1571 77.227 10.6729 79.47 11.77C82.96 13.77 85.16 17.55 85.16 22.58C85.16 30.69 80.37 34.88 72.69 34.88H63.87ZM73 29.36C76.63 29.36 78.89 27.1 78.89 22.61C78.89 18.12 76.64 15.79 73 15.79H70.16V29.36H73Z" fill="white"/>
<path d="M102.52 34.88V32.88H102.45C101.65 34.51 99.45 35.51 97.03 35.51C91.58 35.51 87.78 31.22 87.78 25.63C87.78 20.04 91.78 15.78 97.03 15.78C98.0792 15.7229 99.1258 15.9311 100.073 16.3856C101.02 16.84 101.838 17.526 102.45 18.38H102.52V16.38H108V34.88H102.52ZM102.52 25.64C102.509 24.404 102.01 23.2224 101.132 22.353C100.253 21.4837 99.0661 20.9973 97.83 21C96.8968 20.996 95.9834 21.2694 95.2058 21.7854C94.4282 22.3015 93.8214 23.0369 93.4624 23.8983C93.1035 24.7598 93.0085 25.7084 93.1896 26.6239C93.3707 27.5395 93.8197 28.3805 94.4796 29.0404C95.1395 29.7003 95.9806 30.1493 96.8961 30.3304C97.8116 30.5115 98.7603 30.4166 99.6217 30.0576C100.483 29.6986 101.219 29.0918 101.735 28.3142C102.251 27.5366 102.524 26.6232 102.52 25.69V25.64Z" fill="white"/>
<path d="M112 34.8799V16.4199H117.19V18.4199H117.26C118.26 16.4199 119.75 15.8199 121.88 15.8199V21.3799C118.59 21.3799 117.52 22.6399 117.52 24.7399V34.8799H112Z" fill="white"/>
<path d="M135.81 34.88L130.59 26H130.52V34.88H125V10.27H130.52V23.11H130.59L135.71 16.42H142.26L135.31 24.54L142.06 34.88H135.81Z" fill="white"/>
<path d="M144.46 34.88V10.27H150V17.89C150.674 17.1854 151.492 16.6334 152.397 16.2712C153.303 15.909 154.276 15.7449 155.25 15.79C160.04 15.79 164.43 19.38 164.43 25.54C164.43 31.23 160.81 35.54 155.12 35.54C152.89 35.54 150.66 34.54 149.83 32.94H149.76V34.94L144.46 34.88ZM158.89 25.64C158.919 25.0239 158.822 24.4083 158.607 23.8305C158.391 23.2527 158.06 22.7247 157.634 22.2785C157.208 21.8323 156.696 21.4771 156.129 21.2344C155.562 20.9917 154.952 20.8665 154.335 20.8665C153.718 20.8665 153.108 20.9917 152.541 21.2344C151.974 21.4771 151.462 21.8323 151.036 22.2785C150.61 22.7247 150.279 23.2527 150.063 23.8305C149.848 24.4083 149.751 25.0239 149.78 25.64C149.748 26.251 149.839 26.8621 150.05 27.4365C150.261 28.0109 150.586 28.5365 151.006 28.9816C151.425 29.4266 151.931 29.7818 152.492 30.0256C153.053 30.2695 153.658 30.3968 154.27 30.4C154.889 30.4017 155.502 30.2787 156.073 30.0383C156.643 29.7979 157.159 29.445 157.59 29.0008C158.022 28.5566 158.359 28.03 158.582 27.4526C158.805 26.8752 158.91 26.2588 158.89 25.64Z" fill="white"/>
<path d="M167.17 34.88V10.27H172.69V34.88H167.17Z" fill="white"/>
<path d="M185.77 35.4501C184.46 35.4978 183.154 35.2781 181.932 34.8045C180.709 34.3309 179.596 33.6131 178.661 32.6952C177.725 31.7772 176.986 30.6782 176.489 29.4652C175.992 28.2522 175.747 26.9507 175.77 25.6401C175.842 23.0564 176.917 20.6024 178.767 18.7972C180.617 16.9921 183.096 15.9777 185.681 15.9686C188.266 15.9595 190.752 16.9565 192.615 18.7485C194.477 20.5406 195.569 22.987 195.66 25.5701C195.689 26.8762 195.452 28.1747 194.965 29.387C194.478 30.5994 193.751 31.7004 192.827 32.6238C191.902 33.5472 190.8 34.2736 189.588 34.7594C188.375 35.2451 187.076 35.4801 185.77 35.4501ZM190.19 25.6401C190.218 25.0413 190.125 24.4429 189.916 23.8813C189.706 23.3196 189.385 22.8063 188.971 22.3725C188.557 21.9386 188.06 21.5933 187.509 21.3573C186.958 21.1213 186.364 20.9996 185.765 20.9996C185.166 20.9996 184.572 21.1213 184.021 21.3573C183.47 21.5933 182.973 21.9386 182.559 22.3725C182.145 22.8063 181.824 23.3196 181.614 23.8813C181.405 24.4429 181.312 25.0413 181.34 25.6401C181.312 26.2389 181.405 26.8372 181.614 27.3989C181.824 27.9605 182.145 28.4738 182.559 28.9077C182.973 29.3415 183.47 29.6869 184.021 29.9228C184.572 30.1588 185.166 30.2805 185.765 30.2805C186.364 30.2805 186.958 30.1588 187.509 29.9228C188.06 29.6869 188.557 29.3415 188.971 28.9077C189.385 28.4738 189.706 27.9605 189.916 27.3989C190.125 26.8372 190.218 26.2389 190.19 25.6401Z" fill="white"/>
<path d="M211.87 23.54C211.524 22.7469 210.945 22.0784 210.208 21.6244C209.472 21.1703 208.614 20.9525 207.75 21C205.22 21 203.49 23.09 203.49 25.69C203.45 26.2909 203.534 26.8936 203.737 27.4606C203.94 28.0277 204.257 28.5472 204.668 28.9868C205.08 29.4265 205.577 29.777 206.13 30.0166C206.682 30.2563 207.278 30.3799 207.88 30.38C208.715 30.4123 209.542 30.1957 210.254 29.7578C210.966 29.3198 211.532 28.6802 211.88 27.92H217.5C216.938 30.2796 215.529 32.351 213.542 33.7418C211.555 35.1326 209.126 35.7463 206.717 35.4665C204.308 35.1868 202.084 34.033 200.469 32.2238C198.853 30.4146 197.957 28.0757 197.95 25.65C197.975 23.2269 198.89 20.8975 200.52 19.1048C202.15 17.312 204.383 16.181 206.793 15.9267C209.202 15.6723 211.622 16.3125 213.59 17.7254C215.559 19.1384 216.94 21.2255 217.47 23.59L211.87 23.54Z" fill="white"/>
<path d="M231 34.88L225.81 26H225.74V34.88H220.22V10.27H225.74V23.11H225.81L230.93 16.42H237.48L230.53 24.54L237.28 34.88H231Z" fill="white"/>
<path d="M240 34.88V29.23H245.76V34.88H240Z" fill="white"/>
<path d="M250.12 14.46V10.27H255.64V14.46H250.12ZM250.12 34.88V16.42H255.64V34.88H250.12Z" fill="white"/>
<path d="M268.71 35.4501C267.405 35.4895 266.106 35.2637 264.89 34.7863C263.675 34.3089 262.569 33.5899 261.64 32.6728C260.711 31.7557 259.977 30.6595 259.484 29.4507C258.991 28.2419 258.748 26.9455 258.77 25.6401C258.842 23.0564 259.917 20.6024 261.767 18.7972C263.617 16.9921 266.096 15.9777 268.681 15.9686C271.266 15.9595 273.752 16.9565 275.615 18.7485C277.477 20.5406 278.569 22.987 278.66 25.5701C278.689 26.8814 278.451 28.185 277.96 29.4014C277.47 30.6179 276.737 31.7218 275.806 32.646C274.875 33.5702 273.766 34.2954 272.546 34.7775C271.326 35.2595 270.021 35.4884 268.71 35.4501ZM273.14 25.6401C273.168 25.0413 273.075 24.4429 272.866 23.8813C272.656 23.3196 272.335 22.8063 271.921 22.3725C271.507 21.9386 271.01 21.5933 270.459 21.3573C269.908 21.1213 269.314 20.9996 268.715 20.9996C268.116 20.9996 267.522 21.1213 266.971 21.3573C266.42 21.5933 265.923 21.9386 265.509 22.3725C265.095 22.8063 264.774 23.3196 264.564 23.8813C264.355 24.4429 264.262 25.0413 264.29 25.6401C264.262 26.2389 264.355 26.8372 264.564 27.3989C264.774 27.9605 265.095 28.4738 265.509 28.9077C265.923 29.3415 266.42 29.6869 266.971 29.9228C267.522 30.1588 268.116 30.2805 268.715 30.2805C269.314 30.2805 269.908 30.1588 270.459 29.9228C271.01 29.6869 271.507 29.3415 271.921 28.9077C272.335 28.4738 272.656 27.9605 272.866 27.3989C273.075 26.8372 273.168 26.2389 273.14 25.6401Z" fill="white"/>
</g>
<path d="M285.322 13L284.701 10.9609H281.578L280.957 13H279L282.023 4.39844H284.244L287.279 13H285.322ZM284.268 9.4375C283.693 7.58984 283.369 6.54492 283.295 6.30273C283.225 6.06055 283.174 5.86914 283.143 5.72852C283.014 6.22852 282.645 7.46484 282.035 9.4375H284.268ZM290.01 13H288.223V3.88281H290.01V13ZM295.488 13.1172C294.719 13.1172 294.115 12.8379 293.678 12.2793H293.584C293.646 12.8262 293.678 13.1426 293.678 13.2285V15.8828H291.891V6.44922H293.344L293.596 7.29883H293.678C294.096 6.65039 294.715 6.32617 295.535 6.32617C296.309 6.32617 296.914 6.625 297.352 7.22266C297.789 7.82031 298.008 8.65039 298.008 9.71289C298.008 10.4121 297.904 11.0195 297.697 11.5352C297.494 12.0508 297.203 12.4434 296.824 12.7129C296.445 12.9824 296 13.1172 295.488 13.1172ZM294.961 7.75586C294.52 7.75586 294.197 7.89258 293.994 8.16602C293.791 8.43555 293.686 8.88281 293.678 9.50781V9.70117C293.678 10.4043 293.781 10.9082 293.988 11.2129C294.199 11.5176 294.531 11.6699 294.984 11.6699C295.785 11.6699 296.186 11.0098 296.186 9.68945C296.186 9.04492 296.086 8.5625 295.887 8.24219C295.691 7.91797 295.383 7.75586 294.961 7.75586ZM305.531 13H303.744V9.17383C303.744 8.22852 303.393 7.75586 302.689 7.75586C302.189 7.75586 301.828 7.92578 301.605 8.26562C301.383 8.60547 301.271 9.15625 301.271 9.91797V13H299.484V3.88281H301.271V5.74023C301.271 5.88477 301.258 6.22461 301.23 6.75977L301.189 7.28711H301.283C301.682 6.64648 302.314 6.32617 303.182 6.32617C303.951 6.32617 304.535 6.5332 304.934 6.94727C305.332 7.36133 305.531 7.95508 305.531 8.72852V13ZM311.531 13L311.186 12.1094H311.139C310.838 12.4883 310.527 12.752 310.207 12.9004C309.891 13.0449 309.477 13.1172 308.965 13.1172C308.336 13.1172 307.84 12.9375 307.477 12.5781C307.117 12.2188 306.938 11.707 306.938 11.043C306.938 10.3477 307.18 9.83594 307.664 9.50781C308.152 9.17578 308.887 8.99219 309.867 8.95703L311.004 8.92188V8.63477C311.004 7.9707 310.664 7.63867 309.984 7.63867C309.461 7.63867 308.846 7.79688 308.139 8.11328L307.547 6.90625C308.301 6.51172 309.137 6.31445 310.055 6.31445C310.934 6.31445 311.607 6.50586 312.076 6.88867C312.545 7.27148 312.779 7.85352 312.779 8.63477V13H311.531ZM311.004 9.96484L310.312 9.98828C309.793 10.0039 309.406 10.0977 309.152 10.2695C308.898 10.4414 308.771 10.7031 308.771 11.0547C308.771 11.5586 309.061 11.8105 309.639 11.8105C310.053 11.8105 310.383 11.6914 310.629 11.4531C310.879 11.2148 311.004 10.8984 311.004 10.5039V9.96484Z" fill="white"/>
<defs>
<clipPath id="clip0">
<rect width="278.66" height="35.07" fill="white" transform="translate(0 5)"/>
</clipPath>
</defs>
</svg>
